<svg width="17" height="18" viewBox="0 0 17 18" fill="none" xmlns="http://www.w3.org/2000/svg">
<path d="M8.50002 1.91663C10.4246 1.91663 10.6647 1.92371 11.4198 1.95913C12.1741 1.99454 12.6877 2.11283 13.1396 2.2885C13.6071 2.46842 14.0009 2.71208 14.3948 3.10521C14.755 3.4593 15.0337 3.88763 15.2115 4.36038C15.3864 4.81158 15.5054 5.32583 15.5409 6.08021C15.5741 6.83529 15.5834 7.07542 15.5834 8.99996C15.5834 10.9245 15.5763 11.1646 15.5409 11.9197C15.5054 12.6741 15.3864 13.1876 15.2115 13.6395C15.0342 14.1126 14.7554 14.541 14.3948 14.8947C14.0406 15.2548 13.6123 15.5335 13.1396 15.7114C12.6884 15.8864 12.1741 16.0054 11.4198 16.0408C10.6647 16.0741 10.4246 16.0833 8.50002 16.0833C6.57548 16.0833 6.33535 16.0762 5.58027 16.0408C4.8259 16.0054 4.31235 15.8864 3.86044 15.7114C3.3875 15.534 2.9591 15.2552 2.60527 14.8947C2.24502 14.5407 1.96631 14.1123 1.78856 13.6395C1.6129 13.1883 1.4946 12.6741 1.45919 11.9197C1.4259 11.1646 1.41669 10.9245 1.41669 8.99996C1.41669 7.07542 1.42377 6.83529 1.45919 6.08021C1.4946 5.32513 1.6129 4.81229 1.78856 4.36038C1.96581 3.88734 2.24459 3.4589 2.60527 3.10521C2.9592 2.74483 3.38757 2.4661 3.86044 2.2885C4.31235 2.11283 4.82519 1.99454 5.58027 1.95913C6.33535 1.92583 6.57548 1.91663 8.50002 1.91663ZM8.50002 5.45829C7.56071 5.45829 6.65988 5.83143 5.99568 6.49562C5.33149 7.15981 4.95835 8.06065 4.95835 8.99996C4.95835 9.93927 5.33149 10.8401 5.99568 11.5043C6.65988 12.1685 7.56071 12.5416 8.50002 12.5416C9.43933 12.5416 10.3402 12.1685 11.0044 11.5043C11.6685 10.8401 12.0417 9.93927 12.0417 8.99996C12.0417 8.06065 11.6685 7.15981 11.0044 6.49562C10.3402 5.83143 9.43933 5.45829 8.50002 5.45829V5.45829ZM13.1042 5.28121C13.1042 5.04638 13.0109 4.82117 12.8449 4.65513C12.6788 4.48908 12.4536 4.39579 12.2188 4.39579C11.9839 4.39579 11.7587 4.48908 11.5927 4.65513C11.4266 4.82117 11.3334 5.04638 11.3334 5.28121C11.3334 5.51604 11.4266 5.74125 11.5927 5.90729C11.7587 6.07334 11.9839 6.16663 12.2188 6.16663C12.4536 6.16663 12.6788 6.07334 12.8449 5.90729C13.0109 5.74125 13.1042 5.51604 13.1042 5.28121ZM8.50002 6.87496C9.06361 6.87496 9.60411 7.09884 10.0026 7.49736C10.4011 7.89587 10.625 8.43637 10.625 8.99996C10.625 9.56354 10.4011 10.104 10.0026 10.5026C9.60411 10.9011 9.06361 11.125 8.50002 11.125C7.93644 11.125 7.39593 10.9011 6.99742 10.5026C6.5989 10.104 6.37502 9.56354 6.37502 8.99996C6.37502 8.43637 6.5989 7.89587 6.99742 7.49736C7.39593 7.09884 7.93644 6.87496 8.50002 6.87496V6.87496Z" fill="white"/>
</svg>
